<mxfile host="app.diagrams.net" agent="Mozilla/5.0 (Windows NT 10.0; Win64; x64) AppleWebKit/537.36 (KHTML, like Gecko) Chrome/109.0.0.0 Safari/537.36" version="26.2.14">
  <diagram name="Page-1" id="ts9OCTcsnEQElA1IBidx">
    <mxGraphModel dx="872" dy="457" grid="1" gridSize="10" guides="1" tooltips="1" connect="1" arrows="1" fold="1" page="1" pageScale="1" pageWidth="850" pageHeight="1100" math="0" shadow="0">
      <root>
        <mxCell id="0" />
        <mxCell id="1" parent="0" />
        <mxCell id="s8ptIKmeQXmi3RvAP_Fi-35" value="" style="rounded=0;whiteSpace=wrap;html=1;fillColor=none;dashed=1;" parent="1" vertex="1">
          <mxGeometry x="10" y="100" width="470" height="380" as="geometry" />
        </mxCell>
        <mxCell id="s8ptIKmeQXmi3RvAP_Fi-36" value="" style="rounded=0;whiteSpace=wrap;html=1;fillColor=none;dashed=1;" parent="1" vertex="1">
          <mxGeometry x="500" y="100" width="280" height="380" as="geometry" />
        </mxCell>
        <mxCell id="s8ptIKmeQXmi3RvAP_Fi-1" value="crm_cust_info" style="swimlane;fontStyle=1;childLayout=stackLayout;horizontal=1;startSize=30;horizontalStack=0;resizeParent=1;resizeParentMax=0;resizeLast=0;collapsible=1;marginBottom=0;whiteSpace=wrap;html=1;rounded=1;fillColor=#dae8fc;strokeColor=#6c8ebf;" parent="1" vertex="1">
          <mxGeometry x="300" y="290" width="140" height="110" as="geometry" />
        </mxCell>
        <mxCell id="s8ptIKmeQXmi3RvAP_Fi-2" value="cst_id" style="text;strokeColor=none;fillColor=none;align=left;verticalAlign=middle;spacingLeft=4;spacingRight=4;overflow=hidden;points=[[0,0.5],[1,0.5]];portConstraint=eastwest;rotatable=0;whiteSpace=wrap;html=1;" parent="s8ptIKmeQXmi3RvAP_Fi-1" vertex="1">
          <mxGeometry y="30" width="140" height="30" as="geometry" />
        </mxCell>
        <mxCell id="s8ptIKmeQXmi3RvAP_Fi-29" value="cst_key" style="text;strokeColor=none;fillColor=none;align=left;verticalAlign=middle;spacingLeft=4;spacingRight=4;overflow=hidden;points=[[0,0.5],[1,0.5]];portConstraint=eastwest;rotatable=0;whiteSpace=wrap;html=1;" parent="s8ptIKmeQXmi3RvAP_Fi-1" vertex="1">
          <mxGeometry y="60" width="140" height="30" as="geometry" />
        </mxCell>
        <mxCell id="3wu7EojicARpcoP3aMQU-3" value="CUSTOMER" style="rounded=0;whiteSpace=wrap;html=1;fillColor=#ffff88;strokeColor=#36393d;" vertex="1" parent="s8ptIKmeQXmi3RvAP_Fi-1">
          <mxGeometry y="90" width="140" height="20" as="geometry" />
        </mxCell>
        <mxCell id="s8ptIKmeQXmi3RvAP_Fi-5" value="crm_prd_info" style="swimlane;fontStyle=1;childLayout=stackLayout;horizontal=1;startSize=30;horizontalStack=0;resizeParent=1;resizeParentMax=0;resizeLast=0;collapsible=1;marginBottom=0;whiteSpace=wrap;html=1;rounded=1;fillColor=#dae8fc;strokeColor=#6c8ebf;" parent="1" vertex="1">
          <mxGeometry x="300" y="150" width="140" height="110" as="geometry" />
        </mxCell>
        <mxCell id="s8ptIKmeQXmi3RvAP_Fi-6" value="prd_key" style="text;align=left;verticalAlign=middle;spacingLeft=4;spacingRight=4;overflow=hidden;points=[[0,0.5],[1,0.5]];portConstraint=eastwest;rotatable=0;whiteSpace=wrap;html=1;" parent="s8ptIKmeQXmi3RvAP_Fi-5" vertex="1">
          <mxGeometry y="30" width="140" height="30" as="geometry" />
        </mxCell>
        <mxCell id="3wu7EojicARpcoP3aMQU-7" value="cat_id" style="text;strokeColor=none;fillColor=none;align=left;verticalAlign=middle;spacingLeft=4;spacingRight=4;overflow=hidden;points=[[0,0.5],[1,0.5]];portConstraint=eastwest;rotatable=0;whiteSpace=wrap;html=1;" vertex="1" parent="s8ptIKmeQXmi3RvAP_Fi-5">
          <mxGeometry y="60" width="140" height="30" as="geometry" />
        </mxCell>
        <mxCell id="3wu7EojicARpcoP3aMQU-1" value="PRODUCT" style="rounded=0;whiteSpace=wrap;html=1;fillColor=#e1d5e7;strokeColor=#9673a6;" vertex="1" parent="s8ptIKmeQXmi3RvAP_Fi-5">
          <mxGeometry y="90" width="140" height="20" as="geometry" />
        </mxCell>
        <mxCell id="s8ptIKmeQXmi3RvAP_Fi-8" value="crm_sales_details" style="swimlane;fontStyle=1;childLayout=stackLayout;horizontal=1;startSize=30;horizontalStack=0;resizeParent=1;resizeParentMax=0;resizeLast=0;collapsible=1;marginBottom=0;whiteSpace=wrap;html=1;rounded=1;fillColor=#dae8fc;strokeColor=#6c8ebf;" parent="1" vertex="1">
          <mxGeometry x="40" y="190" width="140" height="110" as="geometry" />
        </mxCell>
        <mxCell id="s8ptIKmeQXmi3RvAP_Fi-9" value="prd_key" style="text;strokeColor=none;fillColor=none;align=left;verticalAlign=middle;spacingLeft=4;spacingRight=4;overflow=hidden;points=[[0,0.5],[1,0.5]];portConstraint=eastwest;rotatable=0;whiteSpace=wrap;html=1;" parent="s8ptIKmeQXmi3RvAP_Fi-8" vertex="1">
          <mxGeometry y="30" width="140" height="30" as="geometry" />
        </mxCell>
        <mxCell id="s8ptIKmeQXmi3RvAP_Fi-10" value="cust_id" style="text;strokeColor=none;fillColor=none;align=left;verticalAlign=middle;spacingLeft=4;spacingRight=4;overflow=hidden;points=[[0,0.5],[1,0.5]];portConstraint=eastwest;rotatable=0;whiteSpace=wrap;html=1;" parent="s8ptIKmeQXmi3RvAP_Fi-8" vertex="1">
          <mxGeometry y="60" width="140" height="30" as="geometry" />
        </mxCell>
        <mxCell id="3wu7EojicARpcoP3aMQU-6" value="SALES" style="rounded=0;whiteSpace=wrap;html=1;fillColor=#ffe6cc;strokeColor=#d79b00;" vertex="1" parent="s8ptIKmeQXmi3RvAP_Fi-8">
          <mxGeometry y="90" width="140" height="20" as="geometry" />
        </mxCell>
        <mxCell id="s8ptIKmeQXmi3RvAP_Fi-11" value="&lt;font style=&quot;font-size: 17px;&quot;&gt;&lt;b&gt;Integration Model&lt;/b&gt;&lt;/font&gt;" style="text;html=1;align=center;verticalAlign=middle;whiteSpace=wrap;rounded=0;" parent="1" vertex="1">
          <mxGeometry x="339" y="40" width="172" height="30" as="geometry" />
        </mxCell>
        <mxCell id="s8ptIKmeQXmi3RvAP_Fi-12" value="Customer Info" style="text;html=1;align=center;verticalAlign=middle;whiteSpace=wrap;rounded=0;" parent="1" vertex="1">
          <mxGeometry x="330" y="266" width="80" height="30" as="geometry" />
        </mxCell>
        <mxCell id="s8ptIKmeQXmi3RvAP_Fi-13" value="Current &amp;amp; History Product Info" style="text;html=1;align=center;verticalAlign=middle;whiteSpace=wrap;rounded=0;" parent="1" vertex="1">
          <mxGeometry x="270" y="124" width="200" height="30" as="geometry" />
        </mxCell>
        <mxCell id="s8ptIKmeQXmi3RvAP_Fi-14" value="Transaction Table (Sales &amp;amp; Orders)" style="text;html=1;align=center;verticalAlign=middle;whiteSpace=wrap;rounded=0;" parent="1" vertex="1">
          <mxGeometry x="60" y="160" width="100" height="30" as="geometry" />
        </mxCell>
        <mxCell id="s8ptIKmeQXmi3RvAP_Fi-15" style="edgeStyle=orthogonalEdgeStyle;rounded=0;orthogonalLoop=1;jettySize=auto;html=1;entryX=0;entryY=0.5;entryDx=0;entryDy=0;" parent="1" source="s8ptIKmeQXmi3RvAP_Fi-10" target="s8ptIKmeQXmi3RvAP_Fi-2" edge="1">
          <mxGeometry relative="1" as="geometry" />
        </mxCell>
        <mxCell id="s8ptIKmeQXmi3RvAP_Fi-17" style="edgeStyle=orthogonalEdgeStyle;rounded=0;orthogonalLoop=1;jettySize=auto;html=1;entryX=0;entryY=0.5;entryDx=0;entryDy=0;" parent="1" source="s8ptIKmeQXmi3RvAP_Fi-9" target="s8ptIKmeQXmi3RvAP_Fi-6" edge="1">
          <mxGeometry relative="1" as="geometry" />
        </mxCell>
        <mxCell id="s8ptIKmeQXmi3RvAP_Fi-18" value="erp_cust_az12" style="swimlane;fontStyle=1;childLayout=stackLayout;horizontal=1;startSize=30;horizontalStack=0;resizeParent=1;resizeParentMax=0;resizeLast=0;collapsible=1;marginBottom=0;whiteSpace=wrap;html=1;rounded=1;fillColor=#cdeb8b;strokeColor=#36393d;" parent="1" vertex="1">
          <mxGeometry x="610" y="260" width="140" height="80" as="geometry" />
        </mxCell>
        <mxCell id="s8ptIKmeQXmi3RvAP_Fi-19" value="cid" style="text;strokeColor=none;fillColor=none;align=left;verticalAlign=middle;spacingLeft=4;spacingRight=4;overflow=hidden;points=[[0,0.5],[1,0.5]];portConstraint=eastwest;rotatable=0;whiteSpace=wrap;html=1;" parent="s8ptIKmeQXmi3RvAP_Fi-18" vertex="1">
          <mxGeometry y="30" width="140" height="30" as="geometry" />
        </mxCell>
        <mxCell id="3wu7EojicARpcoP3aMQU-4" value="CUSTOMER" style="rounded=0;whiteSpace=wrap;html=1;fillColor=#ffff88;strokeColor=#36393d;" vertex="1" parent="s8ptIKmeQXmi3RvAP_Fi-18">
          <mxGeometry y="60" width="140" height="20" as="geometry" />
        </mxCell>
        <mxCell id="s8ptIKmeQXmi3RvAP_Fi-20" value="Customer Info (dob)" style="text;html=1;align=center;verticalAlign=middle;whiteSpace=wrap;rounded=0;" parent="1" vertex="1">
          <mxGeometry x="610" y="230" width="140" height="30" as="geometry" />
        </mxCell>
        <mxCell id="s8ptIKmeQXmi3RvAP_Fi-21" value="erp_loc_a101" style="swimlane;fontStyle=1;childLayout=stackLayout;horizontal=1;startSize=30;horizontalStack=0;resizeParent=1;resizeParentMax=0;resizeLast=0;collapsible=1;marginBottom=0;whiteSpace=wrap;html=1;rounded=1;fillColor=#cdeb8b;strokeColor=#36393d;" parent="1" vertex="1">
          <mxGeometry x="610" y="380" width="140" height="80" as="geometry" />
        </mxCell>
        <mxCell id="s8ptIKmeQXmi3RvAP_Fi-22" value="cid" style="text;strokeColor=none;fillColor=none;align=left;verticalAlign=middle;spacingLeft=4;spacingRight=4;overflow=hidden;points=[[0,0.5],[1,0.5]];portConstraint=eastwest;rotatable=0;whiteSpace=wrap;html=1;" parent="s8ptIKmeQXmi3RvAP_Fi-21" vertex="1">
          <mxGeometry y="30" width="140" height="30" as="geometry" />
        </mxCell>
        <mxCell id="3wu7EojicARpcoP3aMQU-5" value="CUSTOMER" style="rounded=0;whiteSpace=wrap;html=1;fillColor=#ffff88;strokeColor=#36393d;" vertex="1" parent="s8ptIKmeQXmi3RvAP_Fi-21">
          <mxGeometry y="60" width="140" height="20" as="geometry" />
        </mxCell>
        <mxCell id="s8ptIKmeQXmi3RvAP_Fi-23" value="Customer Location" style="text;html=1;align=center;verticalAlign=middle;whiteSpace=wrap;rounded=0;" parent="1" vertex="1">
          <mxGeometry x="627.5" y="350" width="105" height="30" as="geometry" />
        </mxCell>
        <mxCell id="s8ptIKmeQXmi3RvAP_Fi-24" value="erp_px_cat_g1v2" style="swimlane;fontStyle=1;childLayout=stackLayout;horizontal=1;startSize=30;horizontalStack=0;resizeParent=1;resizeParentMax=0;resizeLast=0;collapsible=1;marginBottom=0;whiteSpace=wrap;html=1;rounded=1;fillColor=#cdeb8b;strokeColor=#36393d;" parent="1" vertex="1">
          <mxGeometry x="610" y="150" width="140" height="80" as="geometry" />
        </mxCell>
        <mxCell id="s8ptIKmeQXmi3RvAP_Fi-25" value="id" style="text;strokeColor=none;fillColor=none;align=left;verticalAlign=middle;spacingLeft=4;spacingRight=4;overflow=hidden;points=[[0,0.5],[1,0.5]];portConstraint=eastwest;rotatable=0;whiteSpace=wrap;html=1;" parent="s8ptIKmeQXmi3RvAP_Fi-24" vertex="1">
          <mxGeometry y="30" width="140" height="30" as="geometry" />
        </mxCell>
        <mxCell id="3wu7EojicARpcoP3aMQU-2" value="PRODUCT" style="rounded=0;whiteSpace=wrap;html=1;fillColor=#e1d5e7;strokeColor=#9673a6;" vertex="1" parent="s8ptIKmeQXmi3RvAP_Fi-24">
          <mxGeometry y="60" width="140" height="20" as="geometry" />
        </mxCell>
        <mxCell id="s8ptIKmeQXmi3RvAP_Fi-26" value="Product Category" style="text;html=1;align=center;verticalAlign=middle;whiteSpace=wrap;rounded=0;" parent="1" vertex="1">
          <mxGeometry x="630" y="120" width="100" height="30" as="geometry" />
        </mxCell>
        <mxCell id="s8ptIKmeQXmi3RvAP_Fi-31" style="edgeStyle=orthogonalEdgeStyle;rounded=0;orthogonalLoop=1;jettySize=auto;html=1;entryX=1;entryY=0.5;entryDx=0;entryDy=0;" parent="1" source="s8ptIKmeQXmi3RvAP_Fi-19" target="s8ptIKmeQXmi3RvAP_Fi-29" edge="1">
          <mxGeometry relative="1" as="geometry" />
        </mxCell>
        <mxCell id="s8ptIKmeQXmi3RvAP_Fi-32" value="" style="edgeStyle=orthogonalEdgeStyle;rounded=0;orthogonalLoop=1;jettySize=auto;html=1;" parent="1" source="s8ptIKmeQXmi3RvAP_Fi-22" target="s8ptIKmeQXmi3RvAP_Fi-29" edge="1">
          <mxGeometry relative="1" as="geometry" />
        </mxCell>
        <mxCell id="s8ptIKmeQXmi3RvAP_Fi-34" style="edgeStyle=orthogonalEdgeStyle;rounded=0;orthogonalLoop=1;jettySize=auto;html=1;entryX=1;entryY=0.5;entryDx=0;entryDy=0;" parent="1" source="s8ptIKmeQXmi3RvAP_Fi-25" target="3wu7EojicARpcoP3aMQU-7" edge="1">
          <mxGeometry relative="1" as="geometry" />
        </mxCell>
        <mxCell id="s8ptIKmeQXmi3RvAP_Fi-37" value="&lt;b&gt;&lt;font style=&quot;font-size: 18px;&quot;&gt;CRM&lt;/font&gt;&lt;/b&gt;" style="text;html=1;align=center;verticalAlign=middle;whiteSpace=wrap;rounded=0;fillColor=default;" parent="1" vertex="1">
          <mxGeometry x="180" y="86" width="60" height="30" as="geometry" />
        </mxCell>
        <mxCell id="s8ptIKmeQXmi3RvAP_Fi-38" value="&lt;b&gt;&lt;font style=&quot;font-size: 18px;&quot;&gt;ERP&lt;/font&gt;&lt;/b&gt;" style="text;html=1;align=center;verticalAlign=middle;whiteSpace=wrap;rounded=0;fillColor=default;" parent="1" vertex="1">
          <mxGeometry x="640" y="85" width="60" height="30" as="geometry" />
        </mxCell>
      </root>
    </mxGraphModel>
  </diagram>
</mxfile>
